<svg width="24" height="24" viewBox="0 0 24 24" fill="none" xmlns="http://www.w3.org/2000/svg">
<g clip-path="url(#clip0_138_1470)">
<path d="M12.6001 7.16255C12.2626 6.82505 11.7376 6.82505 11.4001 7.16255L7.68757 10.8C7.35007 11.1375 7.35007 11.6625 7.68757 12C7.83757 12.15 8.06257 12.2625 8.28757 12.2625C8.51257 12.2625 8.70007 12.1875 8.88757 12.0375L11.1751 9.78755V16.275C11.1751 16.725 11.5501 17.1 12.0001 17.1C12.4501 17.1 12.8251 16.725 12.8251 16.275V9.75005L15.1126 12C15.4501 12.3375 15.9751 12.3375 16.3126 12C16.6501 11.6625 16.6501 11.1375 16.3126 10.8L12.6001 7.16255Z" fill="#111928"/>
<path d="M12 0.637451C5.73755 0.637451 0.675049 5.73745 0.675049 12C0.675049 18.2624 5.73755 23.3624 12 23.3624C18.2626 23.3624 23.3251 18.2624 23.3251 12C23.3251 5.73745 18.2626 0.637451 12 0.637451ZM12 21.6749C6.67505 21.6749 2.32505 17.3249 2.32505 12C2.32505 6.67495 6.67505 2.32495 12 2.32495C17.3251 2.32495 21.6751 6.67495 21.6751 12C21.6751 17.3249 17.3251 21.6749 12 21.6749Z" fill="#111928"/>
</g>
<defs>
<clipPath id="clip0_138_1470">
<rect width="24" height="24" fill="white"/>
</clipPath>
</defs>
</svg>
