<svg width="24" height="24" viewBox="0 0 24 24" fill="none" xmlns="http://www.w3.org/2000/svg">
<g clip-path="url(#clip0_108_3833)">
<path d="M16.2375 11.175H9.75005L12 8.88745C12.3375 8.54995 12.3375 8.02495 12 7.68745C11.6625 7.34995 11.1375 7.34995 10.8 7.68745L7.16255 11.4C6.82505 11.7375 6.82505 12.2625 7.16255 12.6L10.8 16.3125C10.95 16.4625 11.175 16.575 11.4 16.575C11.625 16.575 11.8125 16.5 12 16.35C12.3375 16.0125 12.3375 15.4875 12 15.15L9.75005 12.8625H16.2375C16.6875 12.8625 17.0625 12.4875 17.0625 12.0375C17.1 11.55 16.725 11.175 16.2375 11.175Z" fill="#111928"/>
<path d="M12 0.675049C5.73745 0.675049 0.637451 5.73755 0.637451 12C0.637451 18.2626 5.73745 23.3251 12 23.3251C18.2624 23.3251 23.3624 18.2626 23.3624 12C23.3624 5.73755 18.2624 0.675049 12 0.675049ZM12 21.6751C6.67495 21.6751 2.32495 17.3251 2.32495 12C2.32495 6.67505 6.67495 2.32505 12 2.32505C17.3249 2.32505 21.6749 6.67505 21.6749 12C21.6749 17.3251 17.3249 21.6751 12 21.6751Z" fill="#111928"/>
</g>
<defs>
<clipPath id="clip0_108_3833">
<rect width="24" height="24" fill="white"/>
</clipPath>
</defs>
</svg>
