<svg width="24" height="24" viewBox="0 0 24 24" fill="none" xmlns="http://www.w3.org/2000/svg">
<path d="M22.5 21.1875H21.375V19.6875H21.975C22.425 19.6875 22.8375 19.3125 22.8375 18.825V15.075C22.8375 13.95 21.9375 13.05 20.8125 13.05H20.25C19.125 13.05 18.225 13.95 18.225 15.075V18.825C18.225 19.275 18.6 19.6875 19.0875 19.6875H19.6875V21.1875H17.3625V3.075C17.3625 1.9875 16.4625 1.125 15.375 1.125H2.62505C1.53755 1.125 0.675049 1.9875 0.675049 3.075V20.8875C0.675049 21.975 1.53755 22.875 2.62505 22.875H22.5C22.95 22.875 23.3625 22.5 23.3625 22.0125C23.3625 21.525 22.95 21.1875 22.5 21.1875ZM19.9501 15.075C19.9501 14.8875 20.1 14.7375 20.2875 14.7375H20.85C21.0375 14.7375 21.1875 14.8875 21.1875 15.075V18H19.9875V15.075H19.9501ZM2.36255 20.925V3.075C2.36255 2.925 2.47505 2.775 2.66255 2.775H15.4125C15.5625 2.775 15.7125 2.8875 15.7125 3.075V21.1875H12.375V17.625C12.375 15.75 10.875 14.25 9.00005 14.25C7.12505 14.25 5.62505 15.75 5.62505 17.625V21.1875H2.62505C2.47505 21.1875 2.36255 21.075 2.36255 20.925ZM10.6875 21.1875H7.31255V17.625C7.31255 16.6875 8.06255 15.9375 9.00005 15.9375C9.93755 15.9375 10.6875 16.6875 10.6875 17.625V21.1875Z" fill="#111928"/>
<path d="M4.72505 8.2876H7.23755C7.91255 8.2876 8.47505 7.7251 8.47505 7.0501V5.0251C8.47505 4.3501 7.91255 3.7876 7.23755 3.7876H4.72505C4.05005 3.7876 3.48755 4.3501 3.48755 5.0251V7.0501C3.48755 7.7251 4.05005 8.2876 4.72505 8.2876ZM5.17505 5.5126H6.75005V6.6001H5.17505V5.5126Z" fill="#111928"/>
<path d="M10.8376 8.2876H13.3501C14.0251 8.2876 14.5876 7.7251 14.5876 7.0501V5.0251C14.5876 4.3501 14.0251 3.7876 13.3501 3.7876H10.8376C10.1626 3.7876 9.6001 4.3501 9.6001 5.0251V7.0501C9.6001 7.7251 10.1626 8.2876 10.8376 8.2876ZM11.2876 5.5126H12.8626V6.6001H11.2876V5.5126Z" fill="#111928"/>
<path d="M7.19995 13.4624C7.87495 13.4624 8.43745 12.8999 8.43745 12.2249V10.1999C8.43745 9.5249 7.87495 8.9624 7.19995 8.9624H4.68745C4.01245 8.9624 3.44995 9.5249 3.44995 10.1999V12.2249C3.44995 12.8999 4.01245 13.4624 4.68745 13.4624H7.19995ZM5.17495 10.6874H6.74995V11.7749H5.17495V10.6874Z" fill="#111928"/>
<path d="M10.8376 13.4624H13.3501C14.0251 13.4624 14.5876 12.8999 14.5876 12.2249V10.1999C14.5876 9.5249 14.0251 8.9624 13.3501 8.9624H10.8376C10.1626 8.9624 9.6001 9.5249 9.6001 10.1999V12.2249C9.6001 12.8999 10.1626 13.4624 10.8376 13.4624ZM11.2876 10.6874H12.8626V11.7749H11.2876V10.6874Z" fill="#111928"/>
</svg>
