<svg width="24" height="24" viewBox="0 0 24 24" fill="none" xmlns="http://www.w3.org/2000/svg">
<path d="M20.9999 3.9751H18.9749V3.1501C18.9749 2.7001 18.5999 2.2876 18.1124 2.2876C17.6249 2.2876 17.25 2.6626 17.25 3.1501V3.9376H6.71245V3.1501C6.71245 2.7001 6.33745 2.2876 5.84995 2.2876C5.36245 2.2876 4.98745 2.6626 4.98745 3.1501V3.9376H2.99995C1.72495 3.9376 0.637451 4.9876 0.637451 6.3001V19.3501C0.637451 20.6251 1.68745 21.7126 2.99995 21.7126H20.9999C22.275 21.7126 23.3624 20.6626 23.3624 19.3501V6.3001C23.3624 5.0251 22.275 3.9751 20.9999 3.9751ZM2.99995 5.6626H5.02495V6.4126C5.02495 6.8626 5.39995 7.2751 5.88745 7.2751C6.37495 7.2751 6.74995 6.9001 6.74995 6.4126V5.6626H17.3624V6.4126C17.3624 6.8626 17.7374 7.2751 18.2249 7.2751C18.7124 7.2751 19.0875 6.9001 19.0875 6.4126V5.6626H20.9999C21.3749 5.6626 21.6749 5.9626 21.6749 6.3376V8.8126H2.36245V6.3376C2.36245 5.9251 2.62495 5.6626 2.99995 5.6626ZM20.9999 19.9876H2.99995C2.62495 19.9876 2.32495 19.6876 2.32495 19.3126V10.4626H21.6374V19.3501C21.6749 19.7251 21.3749 19.9876 20.9999 19.9876Z" fill="#111928"/>
<path d="M10.7999 11.5127H9.97485C9.74985 11.5127 9.59985 11.6627 9.59985 11.8877V12.7127C9.59985 12.9377 9.74985 13.0877 9.97485 13.0877H10.7999C11.0249 13.0877 11.1749 12.9377 11.1749 12.7127V11.8877C11.1749 11.6627 10.9874 11.5127 10.7999 11.5127Z" fill="#111928"/>
<path d="M14.2125 11.5127H13.3875C13.1625 11.5127 13.0125 11.6627 13.0125 11.8877V12.7127C13.0125 12.9377 13.1625 13.0877 13.3875 13.0877H14.2125C14.4375 13.0877 14.5875 12.9377 14.5875 12.7127V11.8877C14.5875 11.6627 14.4375 11.5127 14.2125 11.5127Z" fill="#111928"/>
<path d="M17.625 11.5127H16.8C16.575 11.5127 16.425 11.6627 16.425 11.8877V12.7127C16.425 12.9377 16.575 13.0877 16.8 13.0877H17.625C17.85 13.0877 18 12.9377 18 12.7127V11.8877C18 11.6627 17.85 11.5127 17.625 11.5127Z" fill="#111928"/>
<path d="M7.2 14.4001H6.375C6.15 14.4001 6 14.5501 6 14.7751V15.6001C6 15.8251 6.15 15.9751 6.375 15.9751H7.2C7.425 15.9751 7.575 15.8251 7.575 15.6001V14.7751C7.575 14.5501 7.3875 14.4001 7.2 14.4001Z" fill="#111928"/>
<path d="M10.7999 14.4001H9.97485C9.74985 14.4001 9.59985 14.5501 9.59985 14.7751V15.6001C9.59985 15.8251 9.74985 15.9751 9.97485 15.9751H10.7999C11.0249 15.9751 11.1749 15.8251 11.1749 15.6001V14.7751C11.1749 14.5501 10.9874 14.4001 10.7999 14.4001Z" fill="#111928"/>
<path d="M14.2125 14.4001H13.3875C13.1625 14.4001 13.0125 14.5501 13.0125 14.7751V15.6001C13.0125 15.8251 13.1625 15.9751 13.3875 15.9751H14.2125C14.4375 15.9751 14.5875 15.8251 14.5875 15.6001V14.7751C14.5875 14.5501 14.4375 14.4001 14.2125 14.4001Z" fill="#111928"/>
<path d="M17.625 14.4001H16.8C16.575 14.4001 16.425 14.5501 16.425 14.7751V15.6001C16.425 15.8251 16.575 15.9751 16.8 15.9751H17.625C17.85 15.9751 18 15.8251 18 15.6001V14.7751C18 14.5501 17.85 14.4001 17.625 14.4001Z" fill="#111928"/>
<path d="M7.2 17.2876H6.375C6.15 17.2876 6 17.4376 6 17.6626V18.4876C6 18.7126 6.15 18.8626 6.375 18.8626H7.2C7.425 18.8626 7.575 18.7126 7.575 18.4876V17.6626C7.575 17.4376 7.3875 17.2876 7.2 17.2876Z" fill="#111928"/>
<path d="M10.7999 17.2876H9.97485C9.74985 17.2876 9.59985 17.4376 9.59985 17.6626V18.4876C9.59985 18.7126 9.74985 18.8626 9.97485 18.8626H10.7999C11.0249 18.8626 11.1749 18.7126 11.1749 18.4876V17.6626C11.1749 17.4376 10.9874 17.2876 10.7999 17.2876Z" fill="#111928"/>
<path d="M14.2125 17.2876H13.3875C13.1625 17.2876 13.0125 17.4376 13.0125 17.6626V18.4876C13.0125 18.7126 13.1625 18.8626 13.3875 18.8626H14.2125C14.4375 18.8626 14.5875 18.7126 14.5875 18.4876V17.6626C14.5875 17.4376 14.4375 17.2876 14.2125 17.2876Z" fill="#111928"/>
</svg>
