<svg width="24" height="24" viewBox="0 0 24 24" fill="none" xmlns="http://www.w3.org/2000/svg">
<path d="M13.9125 17.925C12.4125 17.925 11.2125 19.125 11.2125 20.625C11.2125 22.125 12.4125 23.325 13.9125 23.325C15.4125 23.325 16.6125 22.125 16.6125 20.625C16.6125 19.1625 15.375 17.925 13.9125 17.925ZM13.9125 21.675C13.35 21.675 12.9 21.225 12.9 20.6625C12.9 20.1 13.35 19.65 13.9125 19.65C14.475 19.65 14.925 20.1 14.925 20.6625C14.925 21.1875 14.4375 21.675 13.9125 21.675Z" fill="#111928"/>
<path d="M6.78752 17.925C5.28752 17.925 4.08752 19.125 4.08752 20.625C4.08752 22.125 5.28752 23.325 6.78752 23.325C8.28752 23.325 9.48752 22.125 9.48752 20.625C9.48752 19.1625 8.25002 17.925 6.78752 17.925ZM6.78752 21.675C6.22502 21.675 5.77502 21.225 5.77502 20.6625C5.77502 20.1 6.22502 19.65 6.78752 19.65C7.35002 19.65 7.80002 20.1 7.80002 20.6625C7.80002 21.1875 7.35002 21.675 6.78752 21.675Z" fill="#111928"/>
<path d="M21.825 0.675049H19.8C18.9 0.675049 18.1125 1.35005 18 2.25005L17.4 6.56255H15.825V3.82505C15.7875 3.15005 15.2625 2.62505 14.625 2.62505H11.85C11.7375 2.06255 11.25 1.65005 10.6875 1.65005H7.42504C6.78754 1.65005 6.22504 2.21255 6.22504 2.92505V3.63755H3.48754C2.85004 3.63755 2.28754 4.16255 2.28754 4.76255V6.60005C1.98754 6.67505 1.76254 6.82505 1.57504 7.05005C1.35004 7.35005 1.23754 7.76255 1.35004 8.13755C1.35004 8.17505 1.35004 8.17505 1.35004 8.21255L3.67504 15.225C3.82504 15.75 4.31254 16.125 4.87504 16.125H15.225C16.6125 16.125 17.8125 15.075 18 13.6875L19.575 2.47505C19.575 2.40005 19.65 2.36255 19.725 2.36255H21.75C22.2 2.36255 22.6125 1.98755 22.6125 1.50005C22.6125 1.01255 22.275 0.675049 21.825 0.675049ZM14.1 6.56255H11.85V4.31255H14.1V6.56255ZM7.95004 3.33755H10.2V3.82505V6.56255H7.95004V4.80005V3.33755ZM4.01254 5.28755H6.26254V6.56255H4.01254V5.28755ZM16.3875 13.425C16.3125 13.9875 15.825 14.4 15.2625 14.4H5.21254L3.18754 8.25005H17.1375L16.3875 13.425Z" fill="#111928"/>
</svg>
