<svg width="24" height="24" viewBox="0 0 24 24" fill="none" xmlns="http://www.w3.org/2000/svg">
<path d="M22.2001 6.78751V4.65001C22.2001 3.97501 21.9001 3.37501 21.3751 2.96251C20.85 2.55001 20.1751 2.40001 19.5375 2.55001L3.22505 6.45001H3.00005C1.72505 6.45001 0.675049 7.50001 0.675049 8.77501V19.125C0.675049 20.4 1.72505 21.45 3.00005 21.45H21.0001C22.2751 21.45 23.3251 20.4 23.3251 19.125V8.81251C23.3251 7.95001 22.8751 7.20001 22.2001 6.78751ZM19.9125 4.20001C20.1 4.16251 20.2501 4.23751 20.3251 4.31251C20.4001 4.38751 20.5126 4.50001 20.5126 4.68751V6.48751H10.4626L19.9125 4.20001ZM3.00005 8.13751H21.0001C21.3751 8.13751 21.6751 8.43751 21.6751 8.81251V10.275H2.32505V8.81251C2.32505 8.43751 2.62505 8.13751 3.00005 8.13751ZM21.6751 11.9625V13.65H2.32505V11.9625H21.6751ZM21.0001 19.8375H3.00005C2.62505 19.8375 2.32505 19.5375 2.32505 19.1625V15.3375H21.6376V19.1625C21.6751 19.5375 21.3751 19.8375 21.0001 19.8375Z" fill="#111928"/>
</svg>
