<svg width="24" height="24" viewBox="0 0 24 24" fill="none" xmlns="http://www.w3.org/2000/svg">
<path d="M11.2875 6.52515H13.575C14.025 6.52515 14.4 6.15015 14.4 5.70015C14.4 5.25015 14.025 4.87515 13.575 4.87515H12.8625C12.825 4.42515 12.45 4.08765 12.0375 4.08765C11.5875 4.08765 11.2125 4.42515 11.2125 4.87515C10.0125 4.95015 9.07495 6.00015 9.07495 7.27515C9.07495 8.58765 10.0875 9.67515 11.325 9.67515H12.75C13.05 9.67515 13.3125 10.0126 13.3125 10.3876C13.3125 10.7626 13.05 11.1001 12.75 11.1001H10.5C10.05 11.1001 9.67495 11.4751 9.67495 11.9251C9.67495 12.3751 10.05 12.7876 10.5 12.7876H11.2125C11.25 13.2376 11.625 13.5751 12.0375 13.5751C12.4875 13.5751 12.8625 13.2376 12.8625 12.7876C14.025 12.7126 14.9625 11.6626 14.9625 10.3876C14.9625 9.07515 13.95 7.98765 12.7125 7.98765H11.2875C10.9875 7.98765 10.725 7.65015 10.725 7.27515C10.725 6.90015 10.9875 6.52515 11.2875 6.52515Z" fill="#111928"/>
<path d="M11.9999 0.675049C7.49993 0.675049 3.86243 4.31255 3.86243 8.77505C3.86243 11.25 4.94993 13.5375 6.89993 15.075C7.04993 15.1875 7.23743 15.2625 7.42493 15.2625C7.68743 15.2625 7.91243 15.15 8.09993 14.9625C8.39993 14.5875 8.32493 14.0625 7.98743 13.7625C6.44993 12.525 5.58743 10.725 5.58743 8.77505C5.58743 5.25005 8.47493 2.36255 12.0374 2.36255C15.5999 2.36255 18.4874 5.25005 18.4874 8.77505C18.4874 9.22505 18.8624 9.60005 19.3124 9.60005C19.7624 9.60005 20.1374 9.22505 20.1374 8.77505C20.1374 4.27505 16.4999 0.675049 11.9999 0.675049Z" fill="#111928"/>
<path d="M18.3375 14.7751H14.7C14.25 14.7751 13.8749 15.1501 13.8749 15.6001C13.8749 16.0501 14.25 16.4251 14.7 16.4251H16.0124L12.5624 18.8251C12.4874 18.8626 12.4124 18.9001 12.3375 18.9001H7.91245C7.31245 18.9001 6.74995 19.1251 6.37495 19.5376L4.08745 21.9001C3.74995 22.2376 3.78745 22.7626 4.12495 23.1001C4.27495 23.2501 4.49995 23.3251 4.72495 23.3251C4.94995 23.3251 5.17495 23.2501 5.32495 23.0626L7.61245 20.7001C7.68745 20.6251 7.79995 20.5876 7.91245 20.5876H12.3375C12.75 20.5876 13.1624 20.4751 13.5374 20.2126L17.5124 17.4751V19.2376C17.5124 19.6876 17.8874 20.0626 18.3375 20.0626C18.7874 20.0626 19.1624 19.6876 19.1624 19.2376V15.6001C19.1999 15.1501 18.8249 14.7751 18.3375 14.7751Z" fill="#111928"/>
</svg>
