<svg width="24" height="24" viewBox="0 0 24 24" fill="none" xmlns="http://www.w3.org/2000/svg">
<path d="M12.7126 11.0626H10.4626C10.0126 11.0626 9.6376 11.4376 9.6376 11.8876C9.6376 12.3376 10.0126 12.7501 10.4626 12.7501H11.1751C11.2126 13.2001 11.5876 13.5376 12.0001 13.5376C12.4501 13.5376 12.8251 13.2001 12.8251 12.7501C13.9876 12.6751 14.9251 11.6251 14.9251 10.3501C14.9251 9.03765 13.9126 7.95015 12.6751 7.95015H11.2501C10.9501 7.95015 10.6876 7.61265 10.6876 7.23765C10.6876 6.86265 10.9501 6.52515 11.2501 6.52515H13.5376C13.9876 6.52515 14.3626 6.15015 14.3626 5.70015C14.3626 5.25015 13.9876 4.87515 13.5376 4.87515H12.8251C12.7876 4.42515 12.4126 4.08765 12.0001 4.08765C11.5501 4.08765 11.1751 4.42515 11.1751 4.87515C9.9751 4.95015 9.0376 6.00015 9.0376 7.27515C9.0376 8.58765 10.0501 9.67515 11.2876 9.67515H12.7126C13.0126 9.67515 13.2751 10.0126 13.2751 10.3876C13.2751 10.7626 13.0126 11.0626 12.7126 11.0626Z" fill="#111928"/>
<path d="M4.72505 9.60005C5.17505 9.60005 5.55005 9.22505 5.55005 8.77505C5.55005 5.25005 8.43755 2.36255 12 2.36255C15.5625 2.36255 18.45 5.25005 18.45 8.77505C18.45 10.725 17.5875 12.525 16.05 13.7625C15.675 14.0625 15.6375 14.5875 15.9375 14.9625C16.0875 15.1875 16.35 15.2625 16.6125 15.2625C16.8 15.2625 16.9875 15.1875 17.1375 15.075C19.05 13.5375 20.175 11.2125 20.175 8.77505C20.1375 4.27505 16.5 0.675049 12 0.675049C7.50005 0.675049 3.86255 4.31255 3.86255 8.77505C3.86255 9.22505 4.23755 9.60005 4.72505 9.60005Z" fill="#111928"/>
<path d="M18.3376 18C17.8876 18 17.5126 18.375 17.5126 18.825V20.55L13.5001 17.85C13.1626 17.625 12.7501 17.475 12.3376 17.475H7.91259C7.80009 17.475 7.68758 17.4375 7.61258 17.3625L5.32508 15C4.98758 14.6625 4.46258 14.6625 4.12508 14.9625C3.78758 15.3 3.78758 15.825 4.08758 16.1625L6.33758 18.4875C6.71258 18.9 7.27508 19.1625 7.87508 19.1625H12.3001C12.3751 19.1625 12.4501 19.2 12.5251 19.2375L16.0501 21.6375H14.6626C14.2126 21.6375 13.8376 22.0125 13.8376 22.4625C13.8376 22.9125 14.2126 23.2875 14.6626 23.2875H18.3001C18.7501 23.2875 19.1251 22.9125 19.1251 22.4625V18.825C19.2001 18.375 18.8251 18 18.3376 18Z" fill="#111928"/>
</svg>
