<svg width="24" height="24" viewBox="0 0 24 24" fill="none" xmlns="http://www.w3.org/2000/svg">
<path d="M12 8.88745C10.275 8.88745 8.88745 10.275 8.88745 12C8.88745 13.725 10.275 15.1125 12 15.1125C13.725 15.1125 15.1125 13.725 15.1125 12C15.1125 10.275 13.725 8.88745 12 8.88745ZM12 13.425C11.2125 13.425 10.575 12.7875 10.575 12C10.575 11.2125 11.2125 10.575 12 10.575C12.7875 10.575 13.425 11.2125 13.425 12C13.425 12.7875 12.7875 13.425 12 13.425Z" fill="#111928"/>
<path d="M22.95 10.6874C20.8125 7.4999 17.85 4.2749 12 4.2749C6.15 4.2749 3.1875 7.4999 1.05 10.6874C0.525 11.4749 0.525 12.5249 1.05 13.3124C3.1875 16.4624 6.15 19.7249 12 19.7249C17.85 19.7249 20.8125 16.4624 22.95 13.3124C23.475 12.4874 23.475 11.4749 22.95 10.6874ZM21.5625 12.3749C18.825 16.3874 16.0875 18.0374 12 18.0374C7.9125 18.0374 5.175 16.3874 2.4375 12.3749C2.2875 12.1499 2.2875 11.8499 2.4375 11.6249C5.175 7.6124 7.9125 5.9624 12 5.9624C16.0875 5.9624 18.825 7.6124 21.5625 11.6249C21.675 11.8499 21.675 12.1499 21.5625 12.3749Z" fill="#111928"/>
</svg>
