<svg width="24" height="24" viewBox="0 0 24 24" fill="none" xmlns="http://www.w3.org/2000/svg">
<path d="M15.9138 22.5601C13.8461 22.5601 12.1107 21.0832 11.7046 19.1262H1.66149C1.21841 19.1262 0.812256 18.757 0.812256 18.277C0.812256 17.797 1.18149 17.4278 1.66149 17.4278H11.7046C12.1107 15.5078 13.8461 14.0309 15.9138 14.0309C17.9815 14.0309 19.7169 15.5078 20.123 17.4647H22.3384C22.7815 17.4647 23.1876 17.8339 23.1876 18.3139C23.1876 18.7939 22.8184 19.1632 22.3384 19.1632H20.123C19.7169 21.0832 17.9815 22.5601 15.9138 22.5601ZM15.9138 15.6924C14.4738 15.6924 13.2923 16.8739 13.2923 18.277C13.2923 19.6801 14.4738 20.8616 15.9138 20.8616C17.3538 20.8616 18.5353 19.6801 18.5353 18.277C18.5353 16.8739 17.3538 15.6924 15.9138 15.6924ZM9.41533 16.0616C7.34764 16.0616 5.61226 14.5847 5.2061 12.6278H1.66149C1.21841 12.6278 0.812256 12.2586 0.812256 11.7786C0.812256 11.3355 1.18149 10.9293 1.66149 10.9293H5.2061C5.61226 8.9724 7.34764 7.49547 9.41533 7.49547C11.483 7.49547 13.2184 8.9724 13.6246 10.9293H22.3753C22.8184 10.9293 23.2246 11.2986 23.2246 11.7786C23.2246 12.2216 22.8553 12.6278 22.3753 12.6278H13.5876C13.2184 14.5847 11.483 16.0616 9.41533 16.0616ZM9.41533 9.23086C7.97533 9.23086 6.79379 10.4124 6.79379 11.8155C6.79379 13.2555 7.97533 14.4001 9.41533 14.4001C10.8553 14.4001 12.0369 13.2186 12.0369 11.8155C12.0369 10.3755 10.8553 9.23086 9.41533 9.23086ZM18.9046 9.60009C16.8369 9.60009 15.1015 8.12317 14.6953 6.16624H1.66149C1.21841 6.16624 0.812256 5.79701 0.812256 5.31701C0.812256 4.83701 1.18149 4.46778 1.66149 4.46778H14.6953C15.1015 2.51086 16.8369 1.03394 18.9046 1.03394C21.2676 1.03394 23.1876 2.95394 23.1876 5.28009C23.1876 7.60624 21.2676 9.60009 18.9046 9.60009ZM18.9046 2.7324C17.4646 2.7324 16.283 3.91394 16.283 5.31701C16.283 6.72009 17.4646 7.90163 18.9046 7.90163C20.3446 7.90163 21.5261 6.72009 21.5261 5.31701C21.5261 3.91394 20.3446 2.7324 18.9046 2.7324Z" fill="#111928"/>
</svg>
