<svg width="24" height="24" viewBox="0 0 24 24" fill="none" xmlns="http://www.w3.org/2000/svg">
<path d="M22.4999 21.1876H22.275V11.5126C22.275 10.6501 21.5624 9.90015 20.6624 9.90015H18.6374C17.775 9.90015 17.025 10.6126 17.025 11.5126V21.1876H14.6249V13.6876C14.6249 12.8251 13.9124 12.0751 13.0125 12.0751H10.9874C10.1249 12.0751 9.37495 12.7876 9.37495 13.6876V21.1501H6.93745V16.2376C6.93745 15.3751 6.22495 14.6251 5.32495 14.6251H3.29995C2.43745 14.6251 1.68745 15.3376 1.68745 16.2376V21.1501H1.49995C1.04995 21.1501 0.637451 21.5251 0.637451 22.0126C0.637451 22.5001 1.04995 22.8751 1.49995 22.8751H22.4999C22.9499 22.8751 23.3624 22.5001 23.3624 22.0126C23.3624 21.5251 22.9499 21.1876 22.4999 21.1876ZM3.41245 21.1876V16.3501H5.24995V21.1876H3.41245ZM11.0625 21.1876V13.8001H12.9V21.1876H11.0625ZM18.7499 21.1876V11.6251H20.5875V21.1876H18.7499Z"/>
<path d="M3.89994 9.33756C3.97494 9.33756 4.04994 9.33756 4.12494 9.30006L18.7499 4.98756L18.2999 5.62506C18.0374 6.03756 18.1874 6.52506 18.5624 6.78756C18.7124 6.86256 18.8624 6.90006 19.0124 6.90006C19.2749 6.90006 19.5749 6.75006 19.7249 6.48756L21.2999 3.97506C21.5624 3.56256 21.4124 3.07506 21.0374 2.81256L18.5249 1.23756C18.1499 0.975062 17.6249 1.12506 17.3624 1.50006C17.0999 1.87506 17.2499 2.43756 17.6249 2.70006L18.5249 3.26256L3.67494 7.68756C3.22494 7.83756 2.96244 8.28756 3.11244 8.73756C3.18744 9.11256 3.52494 9.33756 3.89994 9.33756Z"/>
</svg>
