<svg width="24" height="24" viewBox="0 0 24 24" fill="none" xmlns="http://www.w3.org/2000/svg">
<path d="M4.61245 1.3125H2.24995C1.38745 1.3125 0.637451 2.025 0.637451 2.925V5.2875C0.637451 6.15 1.34995 6.9 2.24995 6.9H4.61245C5.47495 6.9 6.22495 6.1875 6.22495 5.2875V2.8875C6.18745 2.025 5.47495 1.3125 4.61245 1.3125ZM4.49995 5.175H2.36245V3H4.49995V5.175Z" fill="#111928"/>
<path d="M9.6374 4.9501H22.4999C22.9499 4.9501 23.3624 4.5751 23.3624 4.0876C23.3624 3.6001 22.9874 3.2251 22.4999 3.2251H9.6374C9.1874 3.2251 8.7749 3.6001 8.7749 4.0876C8.7749 4.5751 9.1874 4.9501 9.6374 4.9501Z" fill="#111928"/>
<path d="M4.61245 9H2.24995C1.38745 9 0.637451 9.7125 0.637451 10.6125V12.975C0.637451 13.8375 1.34995 14.5875 2.24995 14.5875H4.61245C5.47495 14.5875 6.22495 13.875 6.22495 12.975V10.6125C6.18745 9.7125 5.47495 9 4.61245 9ZM4.49995 12.8625H2.36245V10.6875H4.49995V12.8625Z" fill="#111928"/>
<path d="M22.4999 10.95H9.6374C9.1874 10.95 8.7749 11.325 8.7749 11.8125C8.7749 12.3 9.1499 12.6375 9.6374 12.6375H22.4999C22.9499 12.6375 23.3624 12.2625 23.3624 11.8125C23.3624 11.3625 22.9499 10.95 22.4999 10.95Z" fill="#111928"/>
<path d="M4.61245 17.1375H2.24995C1.38745 17.1375 0.637451 17.85 0.637451 18.75V21.1125C0.637451 21.975 1.34995 22.725 2.24995 22.725H4.61245C5.47495 22.725 6.22495 22.0125 6.22495 21.1125V18.75C6.18745 17.85 5.47495 17.1375 4.61245 17.1375ZM4.49995 21H2.36245V18.825H4.49995V21Z" fill="#111928"/>
<path d="M22.4999 19.05H9.6374C9.1874 19.05 8.7749 19.425 8.7749 19.9125C8.7749 20.4 9.1499 20.775 9.6374 20.775H22.4999C22.9499 20.775 23.3624 20.4 23.3624 19.9125C23.3624 19.425 22.9499 19.05 22.4999 19.05Z" fill="#111928"/>
</svg>
