<svg width="24" height="24" viewBox="0 0 24 24" fill="none" xmlns="http://www.w3.org/2000/svg">
<path d="M18.075 11.2876C20.7 11.2876 22.875 9.1501 22.875 6.4876C22.875 3.8626 20.7375 1.6876 18.075 1.6876C16.125 1.6876 14.4375 2.8501 13.6875 4.5376C12.75 4.0126 11.7 3.6751 10.575 3.5626V2.1751C10.575 1.7251 10.2 1.3501 9.75004 1.3501C9.30004 1.3501 8.92504 1.7251 8.92504 2.1751V3.6001C8.88754 3.6001 8.85004 3.6001 8.81254 3.6001C4.98754 4.0126 2.10004 7.0876 2.10004 10.7626V17.4376C2.06254 17.7376 1.98754 17.8876 1.95004 18.0001L1.35004 19.0501C1.12504 19.3876 1.08754 19.8376 1.31254 20.2126L1.35004 20.2501C1.57504 20.5876 1.91254 20.7751 2.32504 20.7751H8.96254V21.8626C8.96254 22.3126 9.33754 22.6876 9.78754 22.6876C10.2375 22.6876 10.6125 22.3126 10.6125 21.8626V20.7751H17.2875C17.7 20.7751 18.0375 20.5876 18.2625 20.2501C18.4875 19.8751 18.4875 19.4251 18.2625 19.0501L17.625 18.0376C17.5125 17.8501 17.4375 17.6626 17.4375 17.4751V11.2126C17.625 11.2501 17.85 11.2876 18.075 11.2876ZM18.075 3.3751C19.8 3.3751 21.1875 4.7626 21.1875 6.4876C21.1875 8.2126 19.8 9.6001 18.075 9.6001C16.35 9.6001 14.9625 8.2126 14.9625 6.4876C14.9625 4.7626 16.35 3.3751 18.075 3.3751ZM15.75 10.6501V17.4751C15.75 17.9626 15.9 18.4501 16.1625 18.9376L16.2375 19.0876H9.78754C9.78754 19.0876 9.78754 19.0876 9.75004 19.0876C9.71254 19.0876 9.75004 19.0876 9.71254 19.0876H3.26254L3.41254 18.8626C3.60004 18.5251 3.71254 18.1501 3.78754 17.6251V10.8001C3.78754 7.9876 6.03754 5.5876 9.00004 5.2876C10.5375 5.1001 12.0375 5.4751 13.275 6.3001C13.275 6.3751 13.275 6.4501 13.275 6.4876C13.275 8.2876 14.2875 9.8251 15.75 10.6501Z" fill="#111928"/>
</svg>
