<svg width="24" height="24" viewBox="0 0 24 24" fill="none" xmlns="http://www.w3.org/2000/svg">
<g clip-path="url(#clip0_138_1895)">
<path d="M7.68753 8.06246C7.50003 7.87496 7.20003 7.76246 6.93753 7.83746C6.67503 7.91246 6.41253 8.09996 6.33753 8.36246L0.975026 21.9C0.862526 22.2 0.937526 22.575 1.16253 22.8C1.31253 22.95 1.53753 23.0625 1.76253 23.0625C1.87503 23.0625 1.98753 23.025 2.06253 22.9875L15.6375 17.6625C15.9 17.55 16.0875 17.325 16.1625 17.0625C16.2375 16.8 16.125 16.5 15.9375 16.275L7.68753 8.06246ZM5.92503 14.025L10.0125 18.1125L8.17503 18.825L5.21253 15.8625L5.92503 14.025ZM4.50003 17.55L6.41253 19.4625L3.22503 20.7L4.50003 17.55ZM11.7 17.4375L6.60003 12.3L7.42503 10.1625L13.8375 16.575L11.7 17.4375Z"/>
<path d="M11.8875 11.0626C12.0375 11.2126 12.2625 11.3251 12.4875 11.3251C12.7125 11.3251 12.9375 11.2501 13.0875 11.0626C13.5 10.6501 13.8375 10.6126 14.3625 10.5751C15 10.5001 15.825 10.4251 16.6875 9.6001C17.55 8.7376 17.625 7.9126 17.6625 7.2751C17.7 6.7501 17.7375 6.4126 18.15 6.0001C18.5625 5.5876 18.9 5.5501 19.425 5.5126C20.0625 5.4376 20.8875 5.3626 21.75 4.5376C22.0875 4.2001 22.0875 3.6751 21.75 3.3376C21.4125 3.0001 20.8875 3.0001 20.55 3.3376C20.1375 3.7501 19.8 3.7876 19.275 3.8251C18.6375 3.9001 17.8125 3.9751 16.95 4.8001C16.0875 5.6626 16.0125 6.4876 15.975 7.1251C15.9375 7.6501 15.9 7.9876 15.4875 8.4001C15.075 8.8126 14.7375 8.8501 14.2125 8.8876C13.575 8.9626 12.75 9.0376 11.8875 9.8626C11.55 10.2001 11.55 10.7251 11.8875 11.0626Z"/>
<path d="M10.0875 8.88752C10.2375 8.88752 10.3875 8.85002 10.5375 8.73752C10.725 8.62502 14.8875 5.85002 13.7625 1.53752C13.65 1.12502 13.2 0.825021 12.75 0.975022C12.3 1.08752 12.0375 1.53752 12.15 1.98752C12.9375 5.13752 9.78747 7.23752 9.63747 7.35002C9.26247 7.61252 9.14997 8.13752 9.37497 8.51252C9.52497 8.73752 9.78747 8.88752 10.0875 8.88752Z"/>
<path d="M22.4251 10.2375C18.1126 9.14999 15.3376 13.275 15.2251 13.4625C14.9626 13.8375 15.0751 14.3625 15.4876 14.625C15.6376 14.7 15.7876 14.775 15.9376 14.775C16.2001 14.775 16.5001 14.625 16.6501 14.4C16.7251 14.25 18.8626 11.1 22.0126 11.8875C22.4626 12 22.9126 11.7375 23.0251 11.2875C23.1751 10.8375 22.9126 10.35 22.4251 10.2375Z"/>
</g>
<defs>
<clipPath id="clip0_138_1895">
<rect width="24" height="24" fill="white"/>
</clipPath>
</defs>
</svg>
