<svg width="24" height="24" viewBox="0 0 24 24" fill="none" xmlns="http://www.w3.org/2000/svg">
<g clip-path="url(#clip0_155_1549)">
<path d="M22.9501 4.87505C21.7501 3.60005 20.4751 2.32505 19.2001 1.08755C18.9376 0.825049 18.6376 0.675049 18.3001 0.675049C17.9626 0.675049 17.6251 0.787549 17.4001 1.05005L3.26261 15.0751C3.03761 15.3001 2.88761 15.5626 2.77511 15.8251L0.712614 22.1251C0.600114 22.4251 0.675114 22.7251 0.825114 22.9501C1.01261 23.1751 1.27511 23.3251 1.61261 23.3251H1.76261L8.17511 21.1876C8.47511 21.0751 8.73761 20.9251 8.92511 20.7001L22.9876 6.67505C23.2126 6.45005 23.3626 6.11255 23.3626 5.77505C23.3626 5.43755 23.2126 5.13755 22.9501 4.87505ZM7.72511 19.5375C7.68761 19.5751 7.65011 19.5751 7.61261 19.6126L2.77511 21.225L4.38761 16.3876C4.38761 16.3501 4.42511 16.3126 4.46261 16.2751L14.7751 6.00005L18.0376 9.26255L7.72511 19.5375ZM19.2001 8.06255L15.9376 4.80005L18.2251 2.51255C19.3126 3.56255 20.4001 4.68755 21.4501 5.77505L19.2001 8.06255Z"/>
</g>
<defs>
<clipPath id="clip0_155_1549">
<rect width="24" height="24" fill="white"/>
</clipPath>
</defs>
</svg>
