<svg width="24" height="24" viewBox="0 0 24 24" fill="none" xmlns="http://www.w3.org/2000/svg">
<g clip-path="url(#clip0_140_3029)">
<path d="M20.4 0.675049H3.59995C1.98745 0.675049 0.637451 1.98755 0.637451 3.63755V20.4375C0.637451 22.05 1.94995 23.3625 3.59995 23.3625H20.4C22.0125 23.3625 23.325 22.05 23.325 20.4375V3.60005C23.325 1.98755 22.0125 0.675049 20.4 0.675049ZM3.59995 2.32505H20.4C21.075 2.32505 21.6375 2.88755 21.6375 3.60005V5.88755H2.32495V3.60005C2.32495 2.92505 2.92495 2.32505 3.59995 2.32505ZM2.32495 11.175V7.61255H21.6375V11.175H2.32495ZM21.6749 12.825V16.3875H2.32495V12.825H21.6749ZM20.4 21.675H3.59995C2.92495 21.675 2.32495 21.1125 2.32495 20.4375V18.1125H21.6375V20.4375C21.675 21.075 21.075 21.675 20.4 21.675Z" fill="#111928"/>
</g>
<defs>
<clipPath id="clip0_140_3029">
<rect width="24" height="24" fill="white"/>
</clipPath>
</defs>
</svg>
