<svg width="24" height="24" viewBox="0 0 24 24" fill="none" xmlns="http://www.w3.org/2000/svg">
<g clip-path="url(#clip0_138_1894)">
<path d="M22.5 3.29996C22.05 3.29996 21.6375 3.67496 21.6375 4.16246V7.04996C21.6375 7.27496 21.4875 7.46246 21.3 7.57496L20.4375 7.91246V4.16246C20.4375 3.22496 19.8375 2.36246 18.975 2.06246C12.6375 -0.300041 7.04998 1.27496 4.94998 2.06246C4.08748 2.39996 3.48748 3.22496 3.48748 4.16246V7.91246L2.66248 7.57496C2.43748 7.49996 2.32498 7.27496 2.32498 7.04996V4.16246C2.32498 3.71246 1.94998 3.29996 1.46248 3.29996C0.974976 3.29996 0.599976 3.67496 0.599976 4.16246V7.04996C0.599976 7.94996 1.16248 8.77496 1.98748 9.11246L3.52498 9.74996V9.86246C2.51248 10.275 1.83748 11.25 1.83748 12.375V20.925C1.83748 22.1625 2.84998 23.175 4.08748 23.175H6.03748C7.27498 23.175 8.28748 22.1625 8.28748 20.925V19.5375H15.7125V20.925C15.7125 22.1625 16.725 23.175 17.9625 23.175H19.9125C21.15 23.175 22.1625 22.1625 22.1625 20.925V12.375C22.1625 11.25 21.45 10.275 20.475 9.86246V9.74996L21.975 9.11246C22.8 8.77496 23.3625 7.94996 23.3625 7.04996V4.16246C23.3625 3.67496 22.95 3.29996 22.5 3.29996ZM5.21248 6.18746H11.1375V9.63746H5.21248V6.18746ZM12.825 6.18746H18.75V9.63746H12.825V6.18746ZM5.54998 3.63746C7.46248 2.92496 12.5625 1.49996 18.375 3.63746C18.6 3.71246 18.75 3.93746 18.75 4.16246V4.49996H5.21248V4.16246C5.21248 3.93746 5.36248 3.71246 5.54998 3.63746ZM6.56248 20.9625C6.56248 21.2625 6.29998 21.525 5.99998 21.525H4.04998C3.74998 21.525 3.48748 21.2625 3.48748 20.9625V19.575H6.56248V20.9625ZM14.5125 17.8875H9.48748V16.875C9.48748 16.575 9.74998 16.3125 10.05 16.3125H13.9875C14.2875 16.3125 14.55 16.575 14.55 16.875V17.8875H14.5125ZM20.475 20.9625C20.475 21.2625 20.2125 21.525 19.9125 21.525H17.9625C17.6625 21.525 17.4 21.2625 17.4 20.9625V19.575H20.475V20.9625ZM20.475 17.8875H16.2V16.875C16.2 15.6375 15.1875 14.625 13.95 14.625H10.05C8.81248 14.625 7.79998 15.6375 7.79998 16.875V17.8875H3.52498V12.375C3.52498 11.8125 3.97498 11.325 4.57498 11.325H19.4625C20.025 11.325 20.5125 11.775 20.5125 12.375V17.8875H20.475Z"/>
<path d="M6.22495 15.3374H5.24995C4.79995 15.3374 4.38745 15.7124 4.38745 16.1999C4.38745 16.6874 4.76245 17.0624 5.24995 17.0624H6.22495C6.67495 17.0624 7.08745 16.6874 7.08745 16.1999C7.08745 15.7124 6.67495 15.3374 6.22495 15.3374Z"/>
<path d="M18.75 15.3374H17.775C17.325 15.3374 16.9125 15.7124 16.9125 16.1999C16.9125 16.6874 17.2875 17.0624 17.775 17.0624H18.75C19.2 17.0624 19.6125 16.6874 19.6125 16.1999C19.6125 15.7124 19.2375 15.3374 18.75 15.3374Z"/>
</g>
<defs>
<clipPath id="clip0_138_1894">
<rect width="24" height="24" fill="white"/>
</clipPath>
</defs>
</svg>
