<svg width="24" height="24" viewBox="0 0 24 24" fill="none" xmlns="http://www.w3.org/2000/svg">
<path d="M23.3625 16.4625C23.3625 14.4 21.75 12.7875 19.6875 12.7875C17.625 12.7875 15.975 14.4375 15.975 16.4625C15.975 17.6625 17.175 19.7625 18.0751 21.1875H6.97505C6.45005 21.1875 5.92505 20.9625 5.55005 20.5875C5.06255 20.1 4.87505 19.425 5.02505 18.7125C5.21255 17.8125 6.07505 17.1375 7.08755 17.1375H10.8C11.775 17.1375 12.7125 16.7625 13.425 16.05C14.4375 15.0375 14.775 13.575 14.2875 12.1875C13.8 10.725 12.375 9.7125 10.725 9.7125H5.92505C6.82505 8.25 8.06255 6.0375 8.06255 4.8C8.06255 2.7375 6.45005 1.125 4.38755 1.125C2.32505 1.125 0.675049 2.775 0.675049 4.8C0.675049 6.525 3.18755 10.275 3.67505 11.025C3.71255 11.0625 3.75005 11.1 3.78755 11.1375L3.82505 11.175C3.86255 11.2125 3.90005 11.2125 3.93755 11.25L3.97505 11.2875C4.01255 11.325 4.05005 11.325 4.08755 11.325H4.12505C4.20005 11.325 4.23755 11.3625 4.31255 11.3625H10.6875C11.5875 11.3625 12.375 11.8875 12.6375 12.675C12.9 13.4625 12.7125 14.25 12.15 14.8125C11.775 15.1875 11.2875 15.4125 10.725 15.4125H7.01255C5.17505 15.4125 3.63755 16.65 3.30005 18.3375C3.03755 19.575 3.41255 20.85 4.31255 21.7125C5.02505 22.425 5.92505 22.8 6.93755 22.8H19.6125C19.6875 22.8 19.725 22.8 19.8 22.7625H19.8375C19.875 22.7625 19.9125 22.725 19.9501 22.725C19.9875 22.725 19.9875 22.6875 20.025 22.6875C20.0625 22.65 20.1 22.65 20.1376 22.6125L20.175 22.575C20.2125 22.5375 20.25 22.5 20.25 22.4625C20.25 22.4625 20.2875 22.4625 20.2875 22.425C20.85 21.825 23.3625 18.225 23.3625 16.4625ZM4.38755 2.8125C5.51255 2.8125 6.37505 3.675 6.37505 4.8C6.37505 5.5125 5.36255 7.425 4.38755 9C3.37505 7.425 2.36255 5.55 2.36255 4.8C2.36255 3.7125 3.26255 2.8125 4.38755 2.8125ZM19.65 14.475C20.775 14.475 21.6376 15.3375 21.6376 16.4625C21.6376 17.175 20.625 19.0125 19.6125 20.5125C18.6375 19.0125 17.5875 17.175 17.5875 16.4625C17.625 15.375 18.525 14.475 19.65 14.475Z" fill="#111928"/>
<path d="M5.2125 4.7625C5.2125 4.5375 5.1375 4.3125 4.9875 4.1625C4.6875 3.8625 4.0875 3.8625 3.7875 4.1625C3.75 4.2 3.7125 4.2375 3.675 4.275C3.6375 4.3125 3.6375 4.3875 3.6 4.425C3.5625 4.4625 3.5625 4.5375 3.5625 4.575C3.5625 4.6125 3.5625 4.6875 3.5625 4.725C3.5625 4.7625 3.5625 4.8375 3.5625 4.875C3.5625 4.9125 3.6 4.9875 3.6 5.025C3.6 5.0625 3.6375 5.1375 3.675 5.175C3.7125 5.2125 3.75 5.25 3.7875 5.2875C3.9375 5.4375 4.1625 5.55 4.3875 5.55C4.6125 5.55 4.8375 5.475 4.9875 5.2875C5.1 5.2125 5.2125 4.9875 5.2125 4.7625Z" fill="#111928"/>
<path d="M20.2501 17.2126C20.4001 17.0626 20.5126 16.8376 20.5126 16.6126C20.5126 16.3876 20.4376 16.1626 20.2501 16.0126C20.2126 15.9751 20.1751 15.9376 20.1376 15.9001C20.1001 15.8626 20.0251 15.8626 19.9876 15.8251C19.9501 15.8251 19.8751 15.7876 19.8376 15.7876C19.7251 15.7876 19.6126 15.7876 19.5001 15.7876C19.4626 15.7876 19.3876 15.8251 19.3501 15.8251C19.3126 15.8626 19.2376 15.8626 19.2001 15.9001C19.1626 15.9376 19.1251 15.9751 19.0876 16.0126C18.9376 16.1626 18.8251 16.3876 18.8251 16.6126C18.8251 16.8376 18.9001 17.0626 19.0876 17.2126C19.1251 17.2501 19.1626 17.2876 19.2001 17.3251C19.2376 17.3626 19.3126 17.3626 19.3501 17.4001C19.3876 17.4001 19.4626 17.4376 19.5001 17.4376C19.5376 17.4376 19.6126 17.4376 19.6501 17.4376C19.8751 17.4376 20.1001 17.3626 20.2501 17.2126Z" fill="#111928"/>
</svg>
