<svg width="24" height="24" viewBox="0 0 24 24" fill="none" xmlns="http://www.w3.org/2000/svg">
<path d="M16.9499 12.225C16.7624 12.225 16.5749 12.225 16.4249 12.2625C15.3374 11.025 14.0249 10.125 12.5624 9.67505C14.0249 8.85005 15.0374 7.27505 15.0374 5.47505C15.0374 2.81255 12.8624 0.675049 10.2374 0.675049C7.5749 0.675049 5.4374 2.85005 5.4374 5.47505C5.4374 7.27505 6.4499 8.85005 7.9124 9.67505C6.4499 10.125 5.0999 11.025 4.0124 12.3C2.4374 14.175 1.5374 16.8 1.4624 19.65C1.4624 19.9875 1.6499 20.2875 1.9124 20.4375C2.9249 20.925 6.4499 22.5375 10.2374 22.5375C11.3249 22.5375 12.4499 22.425 13.5749 22.2001C14.5124 22.9125 15.6749 23.3625 16.9499 23.3625C20.0249 23.3625 22.4999 20.85 22.4999 17.8125C22.4999 14.775 20.0249 12.225 16.9499 12.225ZM10.2374 2.36255C11.9624 2.36255 13.3499 3.75005 13.3499 5.47505C13.3499 7.20005 11.9624 8.58755 10.2374 8.58755C8.5124 8.58755 7.1249 7.20005 7.1249 5.47505C7.1249 3.75005 8.5124 2.36255 10.2374 2.36255ZM3.1874 19.1625C3.3374 16.9125 4.0874 14.8875 5.3249 13.3875C6.6374 11.85 8.3999 10.9875 10.2749 10.9875C11.8874 10.9875 13.3874 11.625 14.6249 12.75C12.7499 13.65 11.4374 15.5625 11.4374 17.775C11.4374 18.8625 11.7374 19.8375 12.2999 20.7001C11.6249 20.775 10.9499 20.85 10.3124 20.85C7.3124 20.85 4.4624 19.7625 3.1874 19.1625ZM16.9499 21.675C14.8124 21.675 13.0874 19.95 13.0874 17.8125C13.0874 15.675 14.8124 13.95 16.9499 13.95C19.0874 13.95 20.8124 15.675 20.8124 17.8125C20.8124 19.95 19.0874 21.675 16.9499 21.675Z" fill="#111928"/>
<path d="M18.2248 16.0501L16.3498 17.8876L16.0498 17.5876C15.7498 17.2501 15.1873 17.2126 14.8498 17.5501C14.5123 17.8501 14.4748 18.4126 14.8123 18.7501L15.6748 19.6876C15.8248 19.8376 16.0498 19.9501 16.2748 19.9501C16.2748 19.9501 16.2748 19.9501 16.3123 19.9501C16.5373 19.9501 16.7623 19.8751 16.9123 19.7251L19.3873 17.2876C19.7248 16.9501 19.7248 16.4251 19.3873 16.0876C19.0873 15.7126 18.5623 15.7126 18.2248 16.0501Z" fill="#111928"/>
</svg>
