<svg width="24" height="24" viewBox="0 0 24 24" fill="none" xmlns="http://www.w3.org/2000/svg">
<g clip-path="url(#clip0_261_4937)">
<path d="M21.7874 6.22495C19.7624 2.77495 16.1624 0.712451 12.1875 0.637451C12.075 0.637451 11.9249 0.637451 11.8125 0.637451C7.83745 0.712451 4.23745 2.81245 2.21245 6.22495C1.19995 7.94995 0.637451 9.97495 0.637451 12C0.637451 14.4375 1.38745 16.725 2.81245 18.6749C4.94995 21.5625 8.21245 23.2875 11.775 23.325C11.8499 23.325 11.8875 23.325 11.9625 23.325C12.0374 23.325 12.075 23.325 12.15 23.325C15.75 23.2875 19.0124 21.5625 21.1124 18.6749C22.5374 16.725 23.2874 14.4 23.2874 12C23.3624 9.97495 22.7999 7.98745 21.7874 6.22495ZM19.7249 6.22495C18.3374 6.67495 16.8749 7.01245 15.4124 7.19995C14.9999 5.54995 14.3624 3.97495 13.5374 2.47495C16.0499 2.88745 18.2249 4.19995 19.7249 6.22495ZM11.775 21.2999C11.0999 20.1375 10.5374 18.9375 10.125 17.7374C11.2125 17.6625 12.3375 17.6625 13.4249 17.7C13.0124 18.9375 12.45 20.1375 11.775 21.2999ZM13.7249 7.34995C12.4124 7.42495 11.0625 7.42495 9.78745 7.31245C10.2375 5.69995 10.8749 4.16245 11.7374 2.69995C12.6374 4.19995 13.3124 5.73745 13.7249 7.34995ZM9.41245 8.99995C10.2375 9.07495 11.0999 9.11245 12 9.11245C12.7125 9.11245 13.4249 9.07495 14.0999 9.03745C14.2499 10.0125 14.3624 11.025 14.3624 12C14.3624 13.35 14.2124 14.7 13.9124 16.0125C12.5249 15.9 11.0624 15.9375 9.67495 16.05C9.37495 14.7375 9.18745 13.3875 9.18745 12C9.14995 10.9875 9.26245 9.97495 9.41245 8.99995ZM9.89995 2.58745C9.11245 4.04995 8.51245 5.58745 8.09995 7.16245C6.78745 6.97495 5.51245 6.67495 4.27495 6.26245C5.66245 4.34995 7.64995 3.07495 9.89995 2.58745ZM2.36245 12C2.36245 10.5 2.69995 9.03745 3.37495 7.68745C4.79995 8.17495 6.26245 8.54995 7.76245 8.77495C7.57495 9.82495 7.49995 10.9125 7.49995 12C7.49995 13.425 7.64995 14.85 7.98745 16.2375C6.59995 16.4625 5.24995 16.7625 3.89995 17.1749C2.88745 15.6375 2.36245 13.875 2.36245 12ZM4.98745 18.6375C6.11245 18.3 7.23745 18.075 8.39995 17.8875C8.77495 19.0875 9.29995 20.2875 9.89995 21.4125C8.02495 21 6.29995 20.0625 4.98745 18.6375ZM13.575 21.525C14.2125 20.325 14.775 19.0875 15.15 17.85C16.4625 18 17.775 18.2625 19.0124 18.6375C17.5499 20.175 15.6749 21.1875 13.575 21.525ZM20.1374 17.2125C18.6749 16.725 17.1374 16.425 15.5999 16.2C15.8999 14.85 16.0499 13.425 16.0499 12C16.0499 10.95 15.9749 9.89995 15.7874 8.84995C17.4374 8.62495 19.0874 8.24995 20.6624 7.68745C21.3374 8.99995 21.6749 10.5 21.6749 12C21.6749 13.875 21.1124 15.6375 20.1374 17.2125Z" fill="#111928"/>
</g>
<defs>
<clipPath id="clip0_261_4937">
<rect width="24" height="24" fill="white"/>
</clipPath>
</defs>
</svg>
